#!OML:ASF I:\Actors\actors\Patient Classification 1\Patient 1\Session 1\Subject1.ASF
:FULLY-SPECIFIED
:DEGREES
1455
root 0.0263765 17.508 8.52058 7.95131 8.11946 -7.94498
lowerback -3.18619 0.911495 5.68113
upperback -11.7908 1.50174 0.517374
thorax -10.7002 0.248191 -2.70089
lowerneck -9.76374 -6.73106 -6.92439
upperneck 29.4616 -10.8984 8.57401
head 12.1727 -4.6846 2.91696
rclavicle 1.25234e-014 1.19271e-014
rhumerus -56.7734 -26.7211 -61.4281
rradius 13.7489
rwrist 38.9814
rhand 18.4095 -33.1533
rfingers 7.12502
rthumb 43.0506 -57.3814
lclavicle 1.25234e-014 1.19271e-014
lhumerus -52.507 27.33 59.2562
lradius 11.9418
lwrist -43.7369
lhand -18.6124 -13.9974
lfingers 7.12502
lthumb 7.67929 15.8432
rfemur -1.41677 22.428 26.1276
rtibia 3.4205
rfoot -15.8311 -31.6862
rtoes 10.2585
lfemur 0.973257 -42.3545 -8.93711
ltibia -3.95606
lfoot -8.53609 43.5965
ltoes -6.15017
1456
root 0.0261094 17.5066 8.52108 8.09503 7.96555 -8.02474
lowerback -3.37784 0.968785 5.74593
upperback -11.8412 1.57042 0.532936
thorax -10.6382 0.277977 -2.72033
lowerneck -9.76758 -6.71557 -6.77494
upperneck 29.5598 -10.8705 8.4207
head 12.1901 -4.6716 2.83904
rclavicle -1.39149e-015 3.10104e-014
rhumerus -57.2424 -27.898 -59.9461
rradius 13.0817
rwrist 42.7516
rhand 17.8232 -34.582
rfingers 7.12502
rthumb 42.5021 -59.0016
lclavicle -1.39149e-015 3.10104e-014
lhumerus -55.3429 32.4678 52.409
lradius 10.6198
lwrist -55.5669
lhand -17.4033 -13.3089
lfingers 7.12502
lthumb 8.8462 16.4857
rfemur -1.52908 22.6411 26.1673
rtibia 3.30957
rfoot -15.7019 -31.7646
rtoes 10.0315
lfemur 1.01212 -42.7636 -8.83272
ltibia -4.10285
lfoot -8.90604 44.1639
ltoes -5.43009
1457
root 0.0247759 17.5054 8.52003 8.23712 7.83012 -8.10447
lowerback -3.52216 0.987022 5.78133
upperback -11.895 1.5909 0.574192
thorax -10.6137 0.287128 -2.694
lowerneck -9.8561 -6.72026 -6.68241
upperneck 29.7979 -10.9045 8.36899
head 12.299 -4.67496 2.79934
rclavicle 1.76918e-014 -7.95139e-015
rhumerus -57.4797 -28.6601 -59.0279
rradius 12.629
rwrist 45.4679
rhand 17.33 -35.6316
rfingers 7.12502
rthumb 42.0401 -60.2082
lclavicle 1.76918e-014 -7.95139e-015
lhumerus -54.5555 32.7104 53.1131
lradius 9.7145
lwrist -59.1255
lhand -15.9791 -11.0859
lfingers 7.12502
lthumb 10.2203 18.6458
rfemur -1.6632 22.8101 26.1884
rtibia 3.20563
rfoot -15.6326 -31.7753
rtoes 9.98411
lfemur 0.913984 -42.9101 -8.6436
ltibia -4.15865
lfoot -9.18435 44.4472
ltoes -5.03699
1458
root 0.0242387 17.5054 8.51882 8.36373 7.72185 -8.14815
lowerback -3.61557 0.99006 5.78935
upperback -11.9588 1.59434 0.615253
thorax -10.6329 0.288991 -2.65289
lowerneck -9.87196 -6.72235 -6.58006
upperneck 29.9802 -10.9154 8.25837
head 12.3634 -4.67754 2.74036
rclavicle 2.38542e-015 0
rhumerus -57.4984 -28.9256 -58.7352
rradius 12.4312
rwrist 46.9054
rhand 17.3209 -36.0156
rfingers 7.12502
rthumb 42.0316 -60.595
lclavicle 2.38542e-015 0
lhumerus -54.0405 32.7736 53.6638
lradius 9.04981
lwrist -62.2121
lhand -14.8545 -9.80144
lfingers 7.12502
lthumb 11.3051 19.8739
rfemur -1.76764 22.8974 26.167
rtibia 3.08091
rfoot -15.5564 -31.7346
rtoes 10.0985
lfemur 0.852829 -43.1718 -8.53552
ltibia -4.20489
lfoot -9.41406 44.8011
ltoes -4.67354
1459
root 0.0243013 17.5062 8.51872 8.4767 7.64816 -8.17696
lowerback -3.69729 0.994379 5.79362
upperback -12.014 1.5995 0.64968
thorax -10.649 0.291951 -2.61712
lowerneck -9.89084 -6.72328 -6.39993
upperneck 30.1421 -10.9031 8.03581
head 12.405 -4.67456 2.62843
rclavicle 3.63776e-014 2.14687e-014
rhumerus -57.3458 -28.8594 -58.8842
rradius 12.4461
rwrist 47.1594
rhand 17.7495 -35.8711
rfingers 7.12502
rthumb 42.4331 -60.3144
lclavicle 3.63776e-014 2.14687e-014
lhumerus -53.7796 32.6336 54.1038
lradius 8.70856
lwrist -64.802
lhand -14.205 -9.11906
lfingers 7.12502
lthumb 11.9314 20.5209
rfemur -1.83682 23.0003 26.1499
rtibia 2.96292
rfoot -15.5178 -31.7445
rtoes 10.2579
lfemur 0.781117 -43.4171 -8.44756
ltibia -4.22294
lfoot -9.5015 45.0962
ltoes -4.47932
1460
root 0.0241745 17.5089 8.51866 8.58442 7.5928 -8.15544
lowerback -3.77004 0.973878 5.7488
upperback -12.0446 1.56769 0.66568
thorax -10.6444 0.281196 -2.57207
lowerneck -9.97317 -6.70034 -6.15782
upperneck 30.3051 -10.8614 7.7975
head 12.4526 -4.65133 2.50224
rclavicle 2.00773e-014 1.51076e-014
rhumerus -56.9672 -28.5224 -59.5037
rradius 12.5822
rwrist 46.3974
rhand 18.1649 -35.42
rfingers 7.12502
rthumb 42.8219 -59.7286
lclavicle 2.00773e-014 1.51076e-014
lhumerus -53.7593 32.3673 54.3747
lradius 8.73111
lwrist -66.6165
lhand -13.7538 -9.17512
lfingers 7.12502
lthumb 12.3665 20.4391
rfemur -1.896 23.1076 26.0851
rtibia 2.85549
rfoot -15.5023 -31.7877
rtoes 10.2597
lfemur 0.669007 -43.6338 -8.40865
ltibia -4.182
lfoot -9.55475 45.3474
ltoes -4.36429
1461
root 0.0230621 17.5124 8.51815 8.70023 7.50873 -8.11239
lowerback -3.82865 0.933876 5.68954
upperback -12.0589 1.50884 0.678347
thorax -10.6316 0.258591 -2.52145
lowerneck -10.1481 -6.66802 -5.92654
upperneck 30.4971 -10.8145 7.59269
head 12.5348 -4.61956 2.38844
rclavicle -1.35174e-014 -3.18055e-015
rhumerus -56.2514 -27.7222 -60.7922
rradius 12.8087
rwrist 44.6784
rhand 18.5884 -34.6814
rfingers 7.12502
rthumb 43.2179 -58.8499
lclavicle -1.35174e-014 -3.18055e-015
lhumerus -53.9397 32.0404 54.4741
lradius 9.04307
lwrist -67.5758
lhand -13.5395 -10.0838
lfingers 7.12502
lthumb 12.5731 19.5178
rfemur -1.98466 23.2401 25.9834
rtibia 2.75934
rfoot -15.4837 -31.8223
rtoes 10.251
lfemur 0.548708 -43.7863 -8.37609
ltibia -4.15645
lfoot -9.79467 45.5611
ltoes -3.95239
1462
root 0.0213801 17.5153 8.51725 8.80253 7.37241 -8.10645
lowerback -3.8501 0.896573 5.67366
upperback -12.0587 1.4582 0.712802
thorax -10.6238 0.237049 -2.47254
lowerneck -10.3764 -6.6332 -5.81271
upperneck 30.6856 -10.7749 7.50896
head 12.6441 -4.58815 2.33762
rclavicle -1.19271e-014 -2.46493e-014
rhumerus -55.3561 -26.6869 -62.3252
rradius 13.0765
rwrist 42.6304
rhand 18.8813 -33.8437
rfingers 7.12502
rthumb 43.4915 -57.9137
lclavicle -1.19271e-014 -2.46493e-014
lhumerus -54.1661 31.723 54.5114
lradius 9.47048
lwrist -67.6204
lhand -13.5836 -11.4758
lfingers 7.12502
lthumb 12.5306 18.1284
rfemur -2.10038 23.2995 25.9102
rtibia 2.70456
rfoot -15.4359 -31.739
rtoes 10.0755
lfemur 0.444465 -43.7972 -8.30644
ltibia -4.13873
lfoot -10.0466 45.6958
ltoes -3.55765
1463
root 0.0204882 17.5175 8.51564 8.87329 7.23092 -8.12605
lowerback -3.81169 0.873809 5.70511
upperback -12.0542 1.43163 0.735947
thorax -10.6445 0.22128 -2.46436
lowerneck -10.4979 -6.58935 -5.83124
upperneck 30.7244 -10.7524 7.64836
head 12.6951 -4.55877 2.39425
rclavicle -4.77083e-015 6.36111e-015
rhumerus -54.634 -25.916 -63.4999
rradius 13.3923
rwrist 40.9003
rhand 18.8403 -33.0885
rfingers 7.12502
rthumb 43.4533 -57.1723
lclavicle -4.77083e-015 6.36111e-015
lhumerus -54.2886 31.4045 54.5951
lradius 9.89315
lwrist -66.7873
lhand -13.7979 -12.9026
lfingers 7.12502
lthumb 12.3239 16.7142
rfemur -2.19848 23.2585 25.8702
rtibia 2.67901
rfoot -15.357 -31.5557
rtoes 9.63564
lfemur 0.372715 -43.7709 -8.24736
ltibia -4.10793
lfoot -10.092 45.8382
ltoes -3.5608
1464
root 0.0200112 17.5193 8.51295 8.954 7.06885 -8.12505
lowerback -3.75956 0.872332 5.7377
upperback -12.0659 1.43371 0.734845
thorax -10.6892 0.217087 -2.48464
lowerneck -10.4462 -6.54788 -5.88075
upperneck 30.623 -10.734 7.83866
head 12.657 -4.53732 2.47918
rclavicle 2.62396e-014 -2.8625e-014
rhumerus -54.1674 -25.4073 -64.3009
rradius 13.8084
rwrist 39.4098
rhand 18.7166 -32.3459
rfingers 7.12502
rthumb 43.3377 -56.4714
lclavicle 2.62396e-014 -2.8625e-014
lhumerus -54.295 31.1215 54.7646
lradius 10.2399
lwrist -65.3543
lhand -14.3142 -14.1722
lfingers 7.12502
lthumb 11.8261 15.4739
rfemur -2.32832 23.2208 25.7967
rtibia 2.68765
rfoot -15.2156 -31.3615
rtoes 9.181
lfemur 0.294044 -43.7203 -8.21023
ltibia -4.08244
lfoot -10.1052 45.974
ltoes -3.58031
1465
root 0.0186602 17.5211 8.50994 9.0279 6.85088 -8.16473
lowerback -3.71431 0.869685 5.7954
upperback -12.0702 1.43613 0.763289
thorax -10.722 0.212764 -2.48687
lowerneck -10.4157 -6.49478 -5.88114
upperneck 30.58 -10.6721 7.89703
head 12.631 -4.50525 2.51168
rclavicle -9.74045e-015 1.59028e-014
rhumerus -53.8688 -25.2498 -64.6252
rradius 14.1944
rwrist 38.2329
rhand 18.5356 -31.7182
rfingers 7.12502
rthumb 43.1685 -55.9043
lclavicle -9.74045e-015 1.59028e-014
lhumerus -53.539 30.0737 56.3584
lradius 10.5611
lwrist -62.0806
lhand -15.0364 -14.866
lfingers 7.12502
lthumb 11.1297 14.8188
rfemur -2.47352 23.2878 25.7781
rtibia 2.72965
rfoot -15.07 -31.2152
rtoes 8.93368
lfemur 0.252013 -43.6351 -8.13572
ltibia -4.07601
lfoot -10.2206 46.1026
ltoes -3.34215
